<svg width="34" height="28" viewBox="0 0 34 28" fill="none" xmlns="http://www.w3.org/2000/svg">
<path d="M28.6666 0.666748H5.33325C4.00717 0.666748 2.7354 1.19353 1.79772 2.13121C0.860036 3.0689 0.333252 4.34067 0.333252 5.66675V22.3334C0.333252 23.6595 0.860036 24.9313 1.79772 25.8689C2.7354 26.8066 4.00717 27.3334 5.33325 27.3334H28.6666C29.9927 27.3334 31.2644 26.8066 32.2021 25.8689C33.1398 24.9313 33.6666 23.6595 33.6666 22.3334V5.66675C33.6666 4.34067 33.1398 3.0689 32.2021 2.13121C31.2644 1.19353 29.9927 0.666748 28.6666 0.666748ZM27.5499 4.00008L16.9999 11.9167L6.44992 4.00008H27.5499ZM28.6666 24.0001H5.33325C4.89122 24.0001 4.4673 23.8245 4.15474 23.5119C3.84218 23.1994 3.66659 22.7754 3.66659 22.3334V6.08341L15.9999 15.3334C16.2884 15.5498 16.6393 15.6667 16.9999 15.6667C17.3605 15.6667 17.7114 15.5498 17.9999 15.3334L30.3333 6.08341V22.3334C30.3333 22.7754 30.1577 23.1994 29.8451 23.5119C29.5325 23.8245 29.1086 24.0001 28.6666 24.0001Z" fill="#149211"/>
</svg>
