<svg width="34" height="34" viewBox="0 0 34 34" fill="none" xmlns="http://www.w3.org/2000/svg">
<rect width="34" height="34" fill="#E5E5E5"/>
<g clip-path="url(#clip0_0_1)">
<rect width="1920" height="8106" transform="translate(-1038 -3282)" fill="white"/>
<rect x="-1038" y="-391" width="1915" height="800" fill="white"/>
<circle cx="17" cy="17" r="50" fill="#FCD5C8"/>
<path d="M33.6666 16.9999C33.6666 14.8112 33.2355 12.644 32.3979 10.6219C31.5603 8.59977 30.3327 6.76245 28.785 5.21481C27.2374 3.66716 25.4001 2.4395 23.378 1.60193C21.3559 0.764348 19.1886 0.333252 16.9999 0.333252C12.5796 0.333252 8.34041 2.0892 5.21481 5.21481C2.0892 8.34041 0.333252 12.5796 0.333252 16.9999C0.333252 21.4202 2.0892 25.6594 5.21481 28.785C8.34041 31.9106 12.5796 33.6666 16.9999 33.6666C21.4202 33.6666 25.6594 31.9106 28.785 28.785C31.9106 25.6594 33.6666 21.4202 33.6666 16.9999V16.9999ZM30.2166 15.3333H25.3333C25.0584 11.4135 23.7154 7.64384 21.4499 4.43325C23.7774 5.25986 25.8295 6.7167 27.3774 8.64132C28.9253 10.5659 29.9083 12.8827 30.2166 15.3333V15.3333ZM12.1333 18.6666H21.9999C21.5734 22.7842 19.8183 26.6512 16.9999 29.6833C14.1834 26.6639 12.4686 22.7821 12.1333 18.6666V18.6666ZM12.1333 15.3333C12.5214 11.2363 14.2292 7.37611 16.9999 4.33325C19.8411 7.34346 21.6001 11.2133 21.9999 15.3333H12.1333ZM12.7333 4.38325C10.4558 7.61162 9.09125 11.3945 8.78325 15.3333H3.78325C4.09809 12.8524 5.10427 10.5101 6.68686 8.57387C8.26946 6.63762 10.3647 5.18547 12.7333 4.38325V4.38325ZM3.78325 18.6666H8.78325C9.05774 22.602 10.4131 26.3854 12.6999 29.5999C10.3399 28.7938 8.25323 27.3419 6.67703 25.4092C5.10084 23.4765 4.09828 21.1405 3.78325 18.6666V18.6666ZM21.3666 29.5832C23.6473 26.3677 25.0177 22.5962 25.3333 18.6666H30.2499C29.9347 21.1337 28.9358 23.4634 27.366 25.3925C25.7962 27.3216 23.7181 28.7732 21.3666 29.5832V29.5832Z" fill="#F25822"/>
</g>
<defs>
<clipPath id="clip0_0_1">
<rect width="1920" height="8106" fill="white" transform="translate(-1038 -3282)"/>
</clipPath>
</defs>
</svg>
